<?xml version="1.0" encoding="iso-8859-1"?>
<!-- Generator: Adobe Illustrator 19.0.0, SVG Export Plug-In . SVG Version: 6.00 Build 0)  -->
<svg version="1.1" id="Layer_1" xmlns="http://www.w3.org/2000/svg" xmlns:xlink="http://www.w3.org/1999/xlink" x="0px" y="0px"
	 viewBox="0 0 160 90" style="enable-background:new 0 0 160 90;" xml:space="preserve">
<g id="XMLID_6_">
	<path id="XMLID_16_" d="M143.835,2H16.165C9.271,2,3.663,7.608,3.663,14.502v60.996C3.663,82.392,9.271,88,16.165,88h127.67
		c6.894,0,12.502-5.608,12.502-12.502V14.502C156.337,7.608,150.729,2,143.835,2z M141.965,18.293v53.413
		c0,1.061-0.86,1.921-1.921,1.921H19.956c-1.061,0-1.921-0.86-1.921-1.921V18.293c0-1.061,0.86-1.921,1.921-1.921h120.087
		C141.105,16.372,141.965,17.232,141.965,18.293z"/>
	<path id="XMLID_17_" d="M32.655,33.638l89.823,35.164c0.777,0.304,1.607,0.459,2.438,0.459c0.261,0,0.521-0.016,0.781-0.046
		c2.452-0.292,4.534-1.899,5.435-4.198c1.342-3.429-0.355-7.311-3.785-8.655L37.52,21.198c-3.428-1.338-7.308,0.36-8.65,3.787
		C27.528,28.413,29.226,32.295,32.655,33.638z"/>
</g>
</svg>
