<?xml version="1.0" encoding="iso-8859-1"?>
<!-- Generator: Adobe Illustrator 19.0.0, SVG Export Plug-In . SVG Version: 6.00 Build 0)  -->
<svg version="1.1" id="Layer_1" xmlns="http://www.w3.org/2000/svg" xmlns:xlink="http://www.w3.org/1999/xlink" x="0px" y="0px"
	 viewBox="0 0 64 64" style="enable-background:new 0 0 64 64;" xml:space="preserve">
<path id="XMLID_132_" d="M41.235,59.556v-18.32h18.32c2.04,0,3.694-1.654,3.694-3.694V26.459c0-2.04-1.654-3.694-3.694-3.694h-18.32
	V4.444c0-2.04-1.654-3.694-3.694-3.694H26.459c-2.04,0-3.694,1.654-3.694,3.694v18.32H4.444c-2.04,0-3.694,1.654-3.694,3.694v11.082
	c0,2.04,1.654,3.694,3.694,3.694h18.32v18.32c0,2.04,1.654,3.694,3.694,3.694h11.082C39.581,63.25,41.235,61.596,41.235,59.556z"/>
</svg>
