<?xml version="1.0" encoding="utf-8"?>
<!-- Generator: Adobe Illustrator 19.0.0, SVG Export Plug-In . SVG Version: 6.00 Build 0)  -->
<svg version="1.1" id="Layer_1" xmlns="http://www.w3.org/2000/svg" xmlns:xlink="http://www.w3.org/1999/xlink" x="0px" y="0px"
	 viewBox="-47 14 64 64" style="enable-background:new -47 14 64 64;" xml:space="preserve">
<path d="M4.1,26.7c-11-11-29.2-10.6-39.7,1.3c-9,10.2-9,25.8,0,36c8.8,10,23.1,11.9,34,5.7c3.3-1.9,3.8-6.3,1.2-9l0,0
	c-1.8-1.8-4.6-2.2-6.8-1c-6.3,3.6-14.5,2.6-19.6-3.1c-5.4-6-5.4-15.3,0-21.3c6.1-6.7,16.5-6.9,22.9-0.5l9.4,9.4
	c0.5,0.5,1.3,0.2,1.3-0.5l2-18.5c0.1-1.2-1.3-1.8-2.1-1L4.1,26.7z"/>
</svg>
