<?xml version="1.0" encoding="iso-8859-1"?>
<!-- Generator: Adobe Illustrator 19.0.0, SVG Export Plug-In . SVG Version: 6.00 Build 0)  -->
<svg version="1.1" id="Layer_1" xmlns="http://www.w3.org/2000/svg" xmlns:xlink="http://www.w3.org/1999/xlink" x="0px" y="0px"
	 viewBox="0 0 64 64" style="enable-background:new 0 0 64 64;" xml:space="preserve">
<path id="XMLID_4_" d="M58.015,44.955L45.061,32l12.955-12.955c1.443-1.443,1.443-3.782,0-5.224l-7.836-7.836
	c-1.443-1.443-3.782-1.443-5.224,0L32,18.939L19.045,5.985c-1.443-1.443-3.782-1.443-5.224,0l-7.836,7.836
	c-1.443,1.443-1.443,3.782,0,5.224L18.939,32L5.985,44.955c-1.443,1.443-1.443,3.782,0,5.224l7.836,7.836
	c1.443,1.443,3.782,1.443,5.224,0L32,45.061l12.955,12.955c1.443,1.443,3.782,1.443,5.224,0l7.836-7.836
	C59.458,48.736,59.458,46.397,58.015,44.955z"/>
</svg>
