<?xml version="1.0" encoding="utf-8"?>
<!-- Generator: Adobe Illustrator 19.0.0, SVG Export Plug-In . SVG Version: 6.00 Build 0)  -->
<svg version="1.1" id="Layer_1" xmlns="http://www.w3.org/2000/svg" xmlns:xlink="http://www.w3.org/1999/xlink" x="0px" y="0px"
	 viewBox="-47 14 64 64" style="enable-background:new -47 14 64 64;" xml:space="preserve">
<g>
	<g>
		<path d="M-15,65.9c-1.1,0-2.3-0.1-3.4-0.3c-1.1-0.2-1.8-1.2-1.6-2.3c0.2-1.1,1.2-1.8,2.3-1.6c0.9,0.2,1.8,0.2,2.7,0.2c0,0,0,0,0,0
			c2.8,0,5.5-0.7,7.9-2.1c1-0.6,2.2-0.2,2.7,0.7c0.6,1,0.2,2.2-0.7,2.7C-8.1,65-11.5,65.9-15,65.9z M-23.9,63.5
			c-0.3,0-0.7-0.1-1-0.3c-4-2.3-7.2-6-8.8-10.4c-0.4-1,0.2-2.2,1.2-2.6c1-0.4,2.2,0.2,2.6,1.2c1.3,3.5,3.8,6.4,7,8.3
			c1,0.6,1.3,1.8,0.7,2.7C-22.6,63.1-23.2,63.5-23.9,63.5z M-1.3,59.5c-0.5,0-0.9-0.2-1.3-0.5c-0.8-0.7-1-2-0.2-2.8
			c2.4-2.8,3.7-6.5,3.7-10.2c0-1.1,0.9-2,2-2c1.1,0,2,0.9,2,2v0c0,4.7-1.6,9.3-4.6,12.8C-0.2,59.2-0.7,59.5-1.3,59.5z M-32.9,48
			c-1.1,0-2-0.9-2-2v0c0-4.7,1.6-9.2,4.6-12.8c0.7-0.8,2-1,2.8-0.3c0.8,0.7,1,2,0.3,2.8c-2.4,2.8-3.7,6.5-3.7,10.2
			C-30.9,47.1-31.8,48-32.9,48z M1.8,41.8c-0.8,0-1.6-0.5-1.9-1.3c-1.3-3.5-3.8-6.4-7-8.3c-1-0.5-1.3-1.8-0.7-2.7
			c0.5-1,1.8-1.3,2.7-0.7c4,2.3,7.2,6,8.8,10.4c0.4,1-0.1,2.2-1.2,2.6C2.2,41.8,2,41.8,1.8,41.8z M-24,32.5c-0.7,0-1.4-0.4-1.7-1
			c-0.6-1-0.2-2.2,0.7-2.7c4-2.3,8.8-3.2,13.4-2.4c1.1,0.2,1.8,1.2,1.6,2.3c-0.2,1.1-1.2,1.8-2.3,1.6c-3.6-0.6-7.5,0.1-10.7,1.9
			C-23.3,32.5-23.6,32.5-24,32.5z"/>
	</g>
	<g>
		<path d="M-15,59.4L-15,59.4c-4.8,0-9.2-2.6-11.6-6.7c-0.4-0.7-0.2-1.6,0.5-2c0.7-0.4,1.6-0.2,2.1,0.5c1.9,3.2,5.3,5.2,9,5.2
			c0.8,0,1.5,0.7,1.5,1.5S-14.2,59.4-15,59.4z M-9.1,57.8c-0.5,0-1-0.3-1.3-0.7c-0.4-0.7-0.2-1.6,0.5-2c3.2-1.9,5.2-5.3,5.2-9
			c0-0.8,0.7-1.5,1.5-1.5s1.5,0.6,1.5,1.5V46c0,4.8-2.6,9.2-6.7,11.6C-8.5,57.7-8.8,57.8-9.1,57.8z M-26.9,47.5
			c-0.8,0-1.5-0.7-1.5-1.5v0c0-4.7,2.5-9.2,6.7-11.6c0.7-0.4,1.6-0.2,2.1,0.5c0.4,0.7,0.2,1.6-0.5,2.1c-3.2,1.9-5.2,5.3-5.2,9
			C-25.4,46.8-26,47.5-26.9,47.5z M-4.7,41.5c-0.5,0-1-0.3-1.3-0.7c-1.9-3.2-5.3-5.2-9-5.2c-0.8,0-1.5-0.7-1.5-1.5
			c0-0.8,0.7-1.5,1.5-1.5h0c0,0,0,0,0,0c4.8,0,9.2,2.5,11.6,6.6C-3,40-3.3,40.9-4,41.3C-4.2,41.5-4.5,41.5-4.7,41.5z"/>
	</g>
	<g>
		<path d="M-13.6,54.7c-0.5,0-0.9-0.3-1-0.8c-0.1-0.5,0.3-1.1,0.8-1.2c3.2-0.6,5.6-3.4,5.6-6.7c0-0.6,0.4-1,1-1s1,0.4,1,1V46
			c0,4.3-3,7.9-7.3,8.7C-13.5,54.7-13.6,54.7-13.6,54.7z M-18.9,53.8c-0.2,0-0.3,0-0.5-0.1c-2.7-1.6-4.4-4.5-4.4-7.6
			c0-1,0.2-2,0.5-3c0.2-0.5,0.8-0.8,1.3-0.6c0.5,0.2,0.8,0.8,0.6,1.3c-0.3,0.7-0.4,1.5-0.4,2.3c0,2.4,1.3,4.7,3.4,5.9
			c0.5,0.3,0.6,0.9,0.4,1.4C-18.2,53.6-18.5,53.8-18.9,53.8z M-9.1,41.9c-0.3,0-0.6-0.1-0.8-0.4c-1.3-1.5-3.2-2.4-5.2-2.4
			c0,0,0,0,0,0c-1.2,0-2.4,0.3-3.4,0.9c-0.5,0.3-1.1,0.1-1.4-0.4c-0.3-0.5-0.1-1.1,0.4-1.4c1.3-0.8,2.9-1.2,4.4-1.2c0,0,0,0,0,0
			c2.6,0,5,1.1,6.7,3.1c0.4,0.4,0.3,1.1-0.1,1.4C-8.6,41.9-8.8,41.9-9.1,41.9z"/>
	</g>
</g>
</svg>
